<?xml version="1.0" standalone="no"?>
<!DOCTYPE svg PUBLIC "-//W3C//DTD SVG 20010904//EN"
 "http://www.w3.org/TR/2001/REC-SVG-20010904/DTD/svg10.dtd">
<svg version="1.0" xmlns="http://www.w3.org/2000/svg"
 width="618.000000pt" height="618.000000pt" viewBox="0 0 618.000000 618.000000"
 preserveAspectRatio="xMidYMid meet">
<metadata>
Created by potrace 1.11, written by Peter Selinger 2001-2013
</metadata>
<g transform="translate(0.000000,618.000000) scale(0.100000,-0.100000)"
fill="#000000" stroke="none">
<path d="M815 6171 c-35 -15 -66 -58 -72 -98 -5 -35 12 -73 171 -391 97 -193
176 -359 176 -367 0 -8 -79 -173 -175 -365 -96 -192 -175 -361 -175 -373 0
-13 79 -184 175 -379 96 -196 175 -360 175 -367 0 -6 -79 -168 -175 -361 -96
-193 -175 -363 -175 -378 -1 -16 75 -179 177 -384 l178 -358 -178 -357 c-98
-197 -178 -369 -178 -383 0 -14 80 -186 178 -383 l178 -357 -178 -358 c-115
-231 -178 -368 -177 -387 0 -35 31 -89 59 -104 14 -8 662 -10 2198 -9 l2178 3
51 27 c69 36 137 106 171 176 l28 57 0 2815 0 2815 -33 67 c-40 81 -110 148
-190 180 l-57 23 -2155 2 c-1185 1 -2164 -2 -2175 -6z m2320 -1115 c40 -17 75
-68 75 -111 0 -43 -35 -94 -75 -111 -51 -21 -1159 -21 -1210 0 -92 39 -96 173
-5 218 32 17 83 18 608 18 476 0 578 -2 607 -14z m1478 -740 c46 -19 68 -48
74 -97 7 -51 -15 -97 -57 -122 -26 -16 -130 -17 -1357 -17 -1042 0 -1333 3
-1353 13 -13 7 -35 28 -48 47 -40 60 -15 147 51 175 47 21 2642 22 2690 1z
m15 -744 c55 -32 78 -117 46 -172 -39 -64 64 -60 -1401 -60 -1042 0 -1333 3
-1353 13 -32 16 -70 73 -70 104 0 35 29 92 54 105 11 6 35 15 51 19 17 4 620
6 1340 6 1061 -2 1314 -4 1333 -15z m0 -740 c55 -32 78 -117 46 -172 -39 -64
64 -60 -1401 -60 -1042 0 -1333 3 -1353 13 -32 16 -70 73 -70 104 0 35 29 92
54 105 11 6 35 15 51 19 17 4 620 6 1340 6 1061 -2 1314 -4 1333 -15z m0 -740
c77 -44 81 -168 8 -216 -23 -15 -137 -16 -1364 -16 l-1339 0 -27 21 c-31 24
-56 69 -56 99 0 33 30 89 54 102 11 6 35 15 51 19 17 4 620 6 1340 6 1061 -2
1314 -4 1333 -15z m2 -747 c78 -40 79 -159 3 -211 -27 -18 -70 -19 -1313 -22
-707 -2 -1310 0 -1339 3 -44 6 -62 14 -87 39 -57 57 -57 115 1 173 l33 33
1336 0 c1176 0 1341 -2 1366 -15z"/>
</g>
</svg>
